solid ASCII
  facet normal 0.000000e+00 0.000000e+00 1.000000e+00
    outer loop
      vertex   7.500000e+02 2.500000e+01 5.000000e+01
      vertex   8.000000e+02 2.500000e+01 5.000000e+01
      vertex   7.500000e+02 7.400000e+02 5.000000e+01
    endloop
  endfacet
  facet normal -0.000000e+00 0.000000e+00 1.000000e+00
    outer loop
      vertex   7.500000e+02 7.400000e+02 5.000000e+01
      vertex   8.000000e+02 2.500000e+01 5.000000e+01
      vertex   8.000000e+02 7.400000e+02 5.000000e+01
    endloop
  endfacet
  facet normal -1.000000e+00 0.000000e+00 0.000000e+00
    outer loop
      vertex   7.500000e+02 2.500000e+01 0.000000e+00
      vertex   7.500000e+02 2.500000e+01 5.000000e+01
      vertex   7.500000e+02 7.400000e+02 0.000000e+00
    endloop
  endfacet
  facet normal -1.000000e+00 0.000000e+00 0.000000e+00
    outer loop
      vertex   7.500000e+02 7.400000e+02 0.000000e+00
      vertex   7.500000e+02 2.500000e+01 5.000000e+01
      vertex   7.500000e+02 7.400000e+02 5.000000e+01
    endloop
  endfacet
  facet normal 0.000000e+00 1.000000e+00 0.000000e+00
    outer loop
      vertex   8.000000e+02 7.400000e+02 5.000000e+01
      vertex   8.000000e+02 7.400000e+02 0.000000e+00
      vertex   7.500000e+02 7.400000e+02 5.000000e+01
    endloop
  endfacet
  facet normal 0.000000e+00 1.000000e+00 0.000000e+00
    outer loop
      vertex   7.500000e+02 7.400000e+02 5.000000e+01
      vertex   8.000000e+02 7.400000e+02 0.000000e+00
      vertex   7.500000e+02 7.400000e+02 0.000000e+00
    endloop
  endfacet
  facet normal 0.000000e+00 0.000000e+00 -1.000000e+00
    outer loop
      vertex   8.000000e+02 2.500000e+01 1.550000e+03
      vertex   7.500000e+02 2.500000e+01 1.550000e+03
      vertex   8.000000e+02 7.400000e+02 1.550000e+03
    endloop
  endfacet
  facet normal -0.000000e+00 0.000000e+00 -1.000000e+00
    outer loop
      vertex   8.000000e+02 7.400000e+02 1.550000e+03
      vertex   7.500000e+02 2.500000e+01 1.550000e+03
      vertex   7.500000e+02 7.400000e+02 1.550000e+03
    endloop
  endfacet
  facet normal -1.000000e+00 0.000000e+00 0.000000e+00
    outer loop
      vertex   7.500000e+02 2.500000e+01 1.550000e+03
      vertex   7.500000e+02 2.500000e+01 1.600000e+03
      vertex   7.500000e+02 7.400000e+02 1.550000e+03
    endloop
  endfacet
  facet normal -1.000000e+00 0.000000e+00 0.000000e+00
    outer loop
      vertex   7.500000e+02 7.400000e+02 1.550000e+03
      vertex   7.500000e+02 2.500000e+01 1.600000e+03
      vertex   7.500000e+02 7.400000e+02 1.600000e+03
    endloop
  endfacet
  facet normal 0.000000e+00 1.000000e+00 0.000000e+00
    outer loop
      vertex   7.500000e+02 7.400000e+02 1.550000e+03
      vertex   7.500000e+02 7.400000e+02 1.600000e+03
      vertex   8.000000e+02 7.400000e+02 1.550000e+03
    endloop
  endfacet
  facet normal 0.000000e+00 1.000000e+00 -0.000000e+00
    outer loop
      vertex   8.000000e+02 7.400000e+02 1.550000e+03
      vertex   7.500000e+02 7.400000e+02 1.600000e+03
      vertex   8.000000e+02 7.400000e+02 1.600000e+03
    endloop
  endfacet
  facet normal 1.000000e+00 -0.000000e+00 0.000000e+00
    outer loop
      vertex   5.000000e+01 2.500000e+01 5.000000e+01
      vertex   5.000000e+01 2.500000e+01 0.000000e+00
      vertex   5.000000e+01 7.400000e+02 5.000000e+01
    endloop
  endfacet
  facet normal 1.000000e+00 0.000000e+00 0.000000e+00
    outer loop
      vertex   5.000000e+01 7.400000e+02 5.000000e+01
      vertex   5.000000e+01 2.500000e+01 0.000000e+00
      vertex   5.000000e+01 7.400000e+02 0.000000e+00
    endloop
  endfacet
  facet normal 0.000000e+00 0.000000e+00 1.000000e+00
    outer loop
      vertex   0.000000e+00 2.500000e+01 5.000000e+01
      vertex   5.000000e+01 2.500000e+01 5.000000e+01
      vertex   0.000000e+00 7.400000e+02 5.000000e+01
    endloop
  endfacet
  facet normal -0.000000e+00 0.000000e+00 1.000000e+00
    outer loop
      vertex   0.000000e+00 7.400000e+02 5.000000e+01
      vertex   5.000000e+01 2.500000e+01 5.000000e+01
      vertex   5.000000e+01 7.400000e+02 5.000000e+01
    endloop
  endfacet
  facet normal 0.000000e+00 1.000000e+00 0.000000e+00
    outer loop
      vertex   5.000000e+01 7.400000e+02 5.000000e+01
      vertex   5.000000e+01 7.400000e+02 0.000000e+00
      vertex   0.000000e+00 7.400000e+02 5.000000e+01
    endloop
  endfacet
  facet normal 0.000000e+00 1.000000e+00 0.000000e+00
    outer loop
      vertex   0.000000e+00 7.400000e+02 5.000000e+01
      vertex   5.000000e+01 7.400000e+02 0.000000e+00
      vertex   0.000000e+00 7.400000e+02 0.000000e+00
    endloop
  endfacet
  facet normal 0.000000e+00 0.000000e+00 -1.000000e+00
    outer loop
      vertex   5.000000e+01 2.500000e+01 1.550000e+03
      vertex   0.000000e+00 2.500000e+01 1.550000e+03
      vertex   5.000000e+01 7.400000e+02 1.550000e+03
    endloop
  endfacet
  facet normal -0.000000e+00 0.000000e+00 -1.000000e+00
    outer loop
      vertex   5.000000e+01 7.400000e+02 1.550000e+03
      vertex   0.000000e+00 2.500000e+01 1.550000e+03
      vertex   0.000000e+00 7.400000e+02 1.550000e+03
    endloop
  endfacet
  facet normal 1.000000e+00 -0.000000e+00 0.000000e+00
    outer loop
      vertex   5.000000e+01 2.500000e+01 1.600000e+03
      vertex   5.000000e+01 2.500000e+01 1.550000e+03
      vertex   5.000000e+01 7.400000e+02 1.600000e+03
    endloop
  endfacet
  facet normal 1.000000e+00 0.000000e+00 0.000000e+00
    outer loop
      vertex   5.000000e+01 7.400000e+02 1.600000e+03
      vertex   5.000000e+01 2.500000e+01 1.550000e+03
      vertex   5.000000e+01 7.400000e+02 1.550000e+03
    endloop
  endfacet
  facet normal 0.000000e+00 1.000000e+00 0.000000e+00
    outer loop
      vertex   5.000000e+01 7.400000e+02 1.600000e+03
      vertex   5.000000e+01 7.400000e+02 1.550000e+03
      vertex   0.000000e+00 7.400000e+02 1.600000e+03
    endloop
  endfacet
  facet normal 0.000000e+00 1.000000e+00 0.000000e+00
    outer loop
      vertex   0.000000e+00 7.400000e+02 1.600000e+03
      vertex   5.000000e+01 7.400000e+02 1.550000e+03
      vertex   0.000000e+00 7.400000e+02 1.550000e+03
    endloop
  endfacet
  facet normal -1.000000e+00 0.000000e+00 0.000000e+00
    outer loop
      vertex   0.000000e+00 7.400000e+02 0.000000e+00
      vertex   0.000000e+00 0.000000e+00 0.000000e+00
      vertex   0.000000e+00 2.500000e+01 5.000000e+01
    endloop
  endfacet
  facet normal -1.000000e+00 -0.000000e+00 0.000000e+00
    outer loop
      vertex   0.000000e+00 2.500000e+01 5.000000e+01
      vertex   0.000000e+00 0.000000e+00 0.000000e+00
      vertex   0.000000e+00 0.000000e+00 1.600000e+03
    endloop
  endfacet
  facet normal -1.000000e+00 0.000000e+00 0.000000e+00
    outer loop
      vertex   0.000000e+00 2.500000e+01 5.000000e+01
      vertex   0.000000e+00 0.000000e+00 1.600000e+03
      vertex   0.000000e+00 2.500000e+01 1.550000e+03
    endloop
  endfacet
  facet normal -1.000000e+00 0.000000e+00 0.000000e+00
    outer loop
      vertex   0.000000e+00 2.500000e+01 1.550000e+03
      vertex   0.000000e+00 0.000000e+00 1.600000e+03
      vertex   0.000000e+00 7.400000e+02 1.600000e+03
    endloop
  endfacet
  facet normal -1.000000e+00 0.000000e+00 0.000000e+00
    outer loop
      vertex   0.000000e+00 2.500000e+01 1.550000e+03
      vertex   0.000000e+00 7.400000e+02 1.600000e+03
      vertex   0.000000e+00 7.400000e+02 1.550000e+03
    endloop
  endfacet
  facet normal -1.000000e+00 0.000000e+00 0.000000e+00
    outer loop
      vertex   0.000000e+00 2.500000e+01 5.000000e+01
      vertex   0.000000e+00 7.400000e+02 5.000000e+01
      vertex   0.000000e+00 7.400000e+02 0.000000e+00
    endloop
  endfacet
  facet normal 0.000000e+00 -0.000000e+00 -1.000000e+00
    outer loop
      vertex   8.000000e+02 7.400000e+02 0.000000e+00
      vertex   8.000000e+02 0.000000e+00 0.000000e+00
      vertex   7.500000e+02 2.500000e+01 0.000000e+00
    endloop
  endfacet
  facet normal 0.000000e+00 -0.000000e+00 -1.000000e+00
    outer loop
      vertex   7.500000e+02 2.500000e+01 0.000000e+00
      vertex   8.000000e+02 0.000000e+00 0.000000e+00
      vertex   0.000000e+00 0.000000e+00 0.000000e+00
    endloop
  endfacet
  facet normal -0.000000e+00 0.000000e+00 -1.000000e+00
    outer loop
      vertex   7.500000e+02 2.500000e+01 0.000000e+00
      vertex   0.000000e+00 0.000000e+00 0.000000e+00
      vertex   5.000000e+01 2.500000e+01 0.000000e+00
    endloop
  endfacet
  facet normal -0.000000e+00 0.000000e+00 -1.000000e+00
    outer loop
      vertex   5.000000e+01 2.500000e+01 0.000000e+00
      vertex   0.000000e+00 0.000000e+00 0.000000e+00
      vertex   0.000000e+00 7.400000e+02 0.000000e+00
    endloop
  endfacet
  facet normal 0.000000e+00 0.000000e+00 -1.000000e+00
    outer loop
      vertex   5.000000e+01 2.500000e+01 0.000000e+00
      vertex   0.000000e+00 7.400000e+02 0.000000e+00
      vertex   5.000000e+01 7.400000e+02 0.000000e+00
    endloop
  endfacet
  facet normal 0.000000e+00 0.000000e+00 -1.000000e+00
    outer loop
      vertex   7.500000e+02 2.500000e+01 0.000000e+00
      vertex   7.500000e+02 7.400000e+02 0.000000e+00
      vertex   8.000000e+02 7.400000e+02 0.000000e+00
    endloop
  endfacet
  facet normal 1.000000e+00 0.000000e+00 0.000000e+00
    outer loop
      vertex   8.000000e+02 7.400000e+02 1.600000e+03
      vertex   8.000000e+02 0.000000e+00 1.600000e+03
      vertex   8.000000e+02 2.500000e+01 1.550000e+03
    endloop
  endfacet
  facet normal 1.000000e+00 0.000000e+00 0.000000e+00
    outer loop
      vertex   8.000000e+02 2.500000e+01 1.550000e+03
      vertex   8.000000e+02 0.000000e+00 1.600000e+03
      vertex   8.000000e+02 0.000000e+00 0.000000e+00
    endloop
  endfacet
  facet normal 1.000000e+00 0.000000e+00 0.000000e+00
    outer loop
      vertex   8.000000e+02 2.500000e+01 1.550000e+03
      vertex   8.000000e+02 0.000000e+00 0.000000e+00
      vertex   8.000000e+02 2.500000e+01 5.000000e+01
    endloop
  endfacet
  facet normal 1.000000e+00 0.000000e+00 0.000000e+00
    outer loop
      vertex   8.000000e+02 2.500000e+01 5.000000e+01
      vertex   8.000000e+02 0.000000e+00 0.000000e+00
      vertex   8.000000e+02 7.400000e+02 0.000000e+00
    endloop
  endfacet
  facet normal 1.000000e+00 -0.000000e+00 0.000000e+00
    outer loop
      vertex   8.000000e+02 2.500000e+01 5.000000e+01
      vertex   8.000000e+02 7.400000e+02 0.000000e+00
      vertex   8.000000e+02 7.400000e+02 5.000000e+01
    endloop
  endfacet
  facet normal 1.000000e+00 0.000000e+00 0.000000e+00
    outer loop
      vertex   8.000000e+02 2.500000e+01 1.550000e+03
      vertex   8.000000e+02 7.400000e+02 1.550000e+03
      vertex   8.000000e+02 7.400000e+02 1.600000e+03
    endloop
  endfacet
  facet normal 0.000000e+00 0.000000e+00 1.000000e+00
    outer loop
      vertex   0.000000e+00 7.400000e+02 1.600000e+03
      vertex   0.000000e+00 0.000000e+00 1.600000e+03
      vertex   5.000000e+01 2.500000e+01 1.600000e+03
    endloop
  endfacet
  facet normal 0.000000e+00 0.000000e+00 1.000000e+00
    outer loop
      vertex   5.000000e+01 2.500000e+01 1.600000e+03
      vertex   0.000000e+00 0.000000e+00 1.600000e+03
      vertex   8.000000e+02 0.000000e+00 1.600000e+03
    endloop
  endfacet
  facet normal -0.000000e+00 0.000000e+00 1.000000e+00
    outer loop
      vertex   5.000000e+01 2.500000e+01 1.600000e+03
      vertex   8.000000e+02 0.000000e+00 1.600000e+03
      vertex   7.500000e+02 2.500000e+01 1.600000e+03
    endloop
  endfacet
  facet normal -0.000000e+00 0.000000e+00 1.000000e+00
    outer loop
      vertex   7.500000e+02 2.500000e+01 1.600000e+03
      vertex   8.000000e+02 0.000000e+00 1.600000e+03
      vertex   8.000000e+02 7.400000e+02 1.600000e+03
    endloop
  endfacet
  facet normal 0.000000e+00 0.000000e+00 1.000000e+00
    outer loop
      vertex   7.500000e+02 2.500000e+01 1.600000e+03
      vertex   8.000000e+02 7.400000e+02 1.600000e+03
      vertex   7.500000e+02 7.400000e+02 1.600000e+03
    endloop
  endfacet
  facet normal 0.000000e+00 -0.000000e+00 1.000000e+00
    outer loop
      vertex   5.000000e+01 2.500000e+01 1.600000e+03
      vertex   5.000000e+01 7.400000e+02 1.600000e+03
      vertex   0.000000e+00 7.400000e+02 1.600000e+03
    endloop
  endfacet
  facet normal 0.000000e+00 1.000000e+00 -0.000000e+00
    outer loop
      vertex   7.500000e+02 2.500000e+01 0.000000e+00
      vertex   5.000000e+01 2.500000e+01 5.000000e+01
      vertex   7.500000e+02 2.500000e+01 5.000000e+01
    endloop
  endfacet
  facet normal 0.000000e+00 1.000000e+00 0.000000e+00
    outer loop
      vertex   7.500000e+02 2.500000e+01 5.000000e+01
      vertex   5.000000e+01 2.500000e+01 5.000000e+01
      vertex   5.000000e+01 2.500000e+01 1.550000e+03
    endloop
  endfacet
  facet normal 0.000000e+00 1.000000e+00 -0.000000e+00
    outer loop
      vertex   7.500000e+02 2.500000e+01 5.000000e+01
      vertex   5.000000e+01 2.500000e+01 1.550000e+03
      vertex   7.500000e+02 2.500000e+01 1.550000e+03
    endloop
  endfacet
  facet normal 0.000000e+00 1.000000e+00 0.000000e+00
    outer loop
      vertex   7.500000e+02 2.500000e+01 1.550000e+03
      vertex   5.000000e+01 2.500000e+01 1.550000e+03
      vertex   5.000000e+01 2.500000e+01 1.600000e+03
    endloop
  endfacet
  facet normal 0.000000e+00 1.000000e+00 -0.000000e+00
    outer loop
      vertex   7.500000e+02 2.500000e+01 1.550000e+03
      vertex   5.000000e+01 2.500000e+01 1.600000e+03
      vertex   7.500000e+02 2.500000e+01 1.600000e+03
    endloop
  endfacet
  facet normal 0.000000e+00 1.000000e+00 0.000000e+00
    outer loop
      vertex   7.500000e+02 2.500000e+01 0.000000e+00
      vertex   5.000000e+01 2.500000e+01 0.000000e+00
      vertex   5.000000e+01 2.500000e+01 5.000000e+01
    endloop
  endfacet
  facet normal 0.000000e+00 1.000000e+00 0.000000e+00
    outer loop
      vertex   0.000000e+00 2.500000e+01 5.000000e+01
      vertex   0.000000e+00 2.500000e+01 1.550000e+03
      vertex   5.000000e+01 2.500000e+01 5.000000e+01
    endloop
  endfacet
  facet normal 0.000000e+00 1.000000e+00 -0.000000e+00
    outer loop
      vertex   5.000000e+01 2.500000e+01 5.000000e+01
      vertex   0.000000e+00 2.500000e+01 1.550000e+03
      vertex   5.000000e+01 2.500000e+01 1.550000e+03
    endloop
  endfacet
  facet normal 0.000000e+00 1.000000e+00 0.000000e+00
    outer loop
      vertex   8.000000e+02 2.500000e+01 1.550000e+03
      vertex   8.000000e+02 2.500000e+01 5.000000e+01
      vertex   7.500000e+02 2.500000e+01 1.550000e+03
    endloop
  endfacet
  facet normal 0.000000e+00 1.000000e+00 0.000000e+00
    outer loop
      vertex   7.500000e+02 2.500000e+01 1.550000e+03
      vertex   8.000000e+02 2.500000e+01 5.000000e+01
      vertex   7.500000e+02 2.500000e+01 5.000000e+01
    endloop
  endfacet
  facet normal 0.000000e+00 -1.000000e+00 0.000000e+00
    outer loop
      vertex   0.000000e+00 0.000000e+00 1.600000e+03
      vertex   0.000000e+00 0.000000e+00 0.000000e+00
      vertex   8.000000e+02 0.000000e+00 1.600000e+03
    endloop
  endfacet
  facet normal 0.000000e+00 -1.000000e+00 -0.000000e+00
    outer loop
      vertex   8.000000e+02 0.000000e+00 1.600000e+03
      vertex   0.000000e+00 0.000000e+00 0.000000e+00
      vertex   8.000000e+02 0.000000e+00 0.000000e+00
    endloop
  endfacet
endsolid
